#!OML:ASF F:\VICON\USERDATA\INSTALL\rory3\rory3.ASF
:FULLY-SPECIFIED
:DEGREES
73
root 0.17919716498696783 17.67855488709423 31.13017202395244 0.1927376486917156 -4.357192285370055 -7.021507175043071
lfemur -27.373716527311565 -5.364332087430573 -10.044088093668432
ltibia 11.773129139122336
lfoot -5.3056986009886495 -0.3152857162261853
ltoes -12.620011081303538
rfemur 9.821156559208124 6.474224063628812 34.03702843454731
rtibia 23.391278899562387
rfoot -6.654660475756726 -5.701003576283403
rtoes 7.887405989465342
lowerback 8.163235222119896 2.333524096475345 6.7501173549069815
upperback 0.013288577226881981 3.937625372877485 1.440477285835133
thorax -4.794776358874737 1.7936023810754715 -2.8978761570386107
lowerneck -16.15312431485662 -3.084179355889047 -1.925935935813289
upperneck 19.691068949403572 -3.9277134356163317 1.2574618291646829
head 8.92212365518282 -1.8430626704706397 0.3238997973087546
lclavicle -4.507551739012339e-16 -7.75571424779884e-16
lhumerus -36.52681916082094 5.948560305220918 79.0618189841986
lradius 30.23705468132075
lwrist 7.963226475783479
lhand -28.103920257347202 19.87666663092542
lfingers 7.12502
lthumb -1.4435752649297848 49.6289134353289
rclavicle -4.547903684282593e-16 -7.775833340410755e-16
rhumerus -23.314173008993777 -11.638605770847654 -81.07495897854282
rradius 29.71892818953596
rwrist -1.0954222370982443
rhand -19.02383893971859 22.872699886138125
rfingers 7.12502
rthumb 7.347288091813369 -6.566179991072066
74
root 0.2793668596543711 17.618523615276047 31.77943554284554 -0.4811174991703018 -4.305159681328968 -6.9729727052729364
lfemur -27.50750231400759 -4.659569575987393 -10.8444269462405
ltibia 11.500769411151182
lfoot -4.959135901521856 -1.3171951549812886
ltoes -12.439492349736945
rfemur 11.182818457537415 6.537460903698539 33.707573839435874
rtibia 25.57612103829499
rfoot -6.439553853347081 -5.303366540649147
rtoes 7.722851443765767
lowerback 8.32485695668173 2.3513590340496076 6.803323831268895
upperback -0.014302634240559012 3.9397693634552446 1.3320525221331483
thorax -4.800305676315814 1.80082540604496 -2.8352857235227207
lowerneck -16.12993829871106 -3.123467757023237 -1.880978431567273
upperneck 19.676150961275084 -4.005187104335025 1.3397326617019805
head 8.930836382060969 -1.8720047663676427 0.295801343722133
lclavicle -4.512109929969864e-16 -7.757160094622806e-16
lhumerus -36.92290428830681 5.8945849257957486 78.65076298474003
lradius 30.690175988054943
lwrist 7.645763242607082
lhand -27.981259571207186 19.475540482584663
lfingers 7.12502
lthumb -1.2980077623949815 49.352133399500914
rclavicle -4.54835622156112e-16 -7.776182830145303e-16
rhumerus -23.074474819986932 -11.889134854865137 -80.9983396141408
rradius 29.862879593541805
rwrist -1.1178772408220317
rhand -19.164300060634293 23.50759405594433
rfingers 7.12502
rthumb 7.168291881457716 -6.053514398020772
75
root 0.38781037672808905 17.665552215076474 32.68592210302806 -1.4375438665672737 -4.819303681658111 -5.14273760954145
lfemur -27.256045851192667 -4.004763036813615 -13.87924815957011
ltibia 14.465506687661883
lfoot -3.9059830525199066 -3.1540522252739693
ltoes -11.272940193987493
rfemur 11.500766238458063 6.589341523781998 31.376490199539244
rtibia 29.600273553955176
rfoot -5.540249062027373 -4.86137720907757
rtoes 8.427081141007076
lowerback 8.407967753656946 2.517382937256688 5.359613315955475
upperback 0.023998706573244225 3.946989897636568 1.0221473985565233
thorax -4.692700812003007 1.8233949343167701 -2.7210769426381676
lowerneck -16.044202590721746 -3.16999788569868 -1.8542865445657537
upperneck 19.739903873321314 -4.100068542753363 1.4297038682583056
head 8.954650030542199 -1.9084429968522192 0.2800016950395963
lclavicle -4.507857120185549e-16 -7.752737298951749e-16
lhumerus -37.12929168167642 6.092809367441639 78.22225715373408
lradius 31.025566153504087
lwrist 7.729759818216398
lhand -27.97904775616695 18.945535046439893
lfingers 7.12502
lthumb -1.2648012152549375 48.93300429724012
rclavicle -4.548000573181388e-16 -7.775907622789387e-16
rhumerus -23.192605887785838 -12.354871119055048 -80.81100818982901
rradius 29.75684878121186
rwrist -0.9131621962145449
rhand -19.24986034793556 23.914657049444344
rfingers 7.12502
rthumb 7.0750700739144925 -5.790066927453279
76
root 0.5015904026320166 17.7100072956077 33.68817428021202 -2.119431116177764 -4.038307263484449 -3.7666559910747623
lfemur -26.287689867580774 -4.249868855434551 -16.50417208403188
ltibia 18.084851339093767
lfoot -2.8524961088874443 -5.222417375181838
ltoes -9.759300748172812
rfemur 10.04987549325341 5.242135595441951 29.020287252067234
rtibia 35.990423701093896
rfoot -2.614766378444724 -4.115059408615666
rtoes 10.327402750703943
lowerback 8.324917183073921 2.4307837796699228 4.087591049584198
upperback 0.06250353702135741 3.717949262175731 0.6957465737928175
thorax -4.619672552589858 1.7515727506231338 -2.4295466970973862
lowerneck -15.921876296453581 -3.2122900733018764 -1.8704679129820427
upperneck 19.898498907750902 -4.189776456648948 1.5275849201457579
head 8.993066697294053 -1.9442951885862405 0.2812294236994248
lclavicle -4.484477793964624e-16 -7.737814768654452e-16
lhumerus -36.95613546765205 6.616733752834242 77.87357426746075
lradius 31.142972998153336
lwrist 7.958846331530246
lhand -28.061246353686453 18.531309445223677
lfingers 7.12502
lthumb -1.3447179538989171 48.562276655904306
rclavicle -4.541524897230014e-16 -7.770900112730277e-16
rhumerus -23.62495804660815 -12.9683191624047 -80.49427972085638
rradius 29.41658055625428
rwrist -0.46733217273192107
rhand -19.26875894689195 24.1602724160072
rfingers 7.12502
rthumb 7.071234295707189 -5.676237259022142
77
root 0.6079753677407531 17.76830394317468 34.562744357734644 -2.882061476031676 -4.588933352124291 -2.99477260185673
lfemur -24.570171496368168 -3.797509138514263 -18.23758214555261
ltibia 21.3284413139043
lfoot -2.289400883066776 -5.933125511810783
ltoes -9.383865089868952
rfemur 6.558870756490666 4.8470636262786035 27.076392712940027
rtibia 44.532273079550265
rfoot 2.3131562145826177 -3.3872167163382465
rtoes 13.7169940737005
lowerback 8.766181665869391 2.487396719688892 3.6004235337276453
upperback 0.0012423008243622607 3.723350258061629 0.5389762669533192
thorax -4.847693371764591 1.7561856933818598 -2.272222298351398
lowerneck -15.775224550380845 -3.2399345432318083 -1.923654943303701
upperneck 20.11845980025457 -4.253651664149749 1.6037936946698967
head 9.039240320976953 -1.9720355896795863 0.2881099221685364
lclavicle -4.509732048814647e-16 -7.750919154142202e-16
lhumerus -36.57701883263829 7.001598681117295 77.70116776233792
lradius 31.115565027748595
lwrist 8.05838438918038
lhand -28.169073307800645 18.429252941293925
lfingers 7.12502
lthumb -1.4641118507948907 48.476668934686245
rclavicle -4.538643477155646e-16 -7.768671135976252e-16
rhumerus -24.284841551766505 -13.714156742674806 -80.14560483998284
rradius 28.931499054951626
rwrist 0.1886349192756387
rhand -19.21135809340414 24.237086194442476
rfingers 7.12502
rthumb 7.149157479470627 -5.672514933823538
78
root 0.6880540215330391 17.837229769275993 35.511027135697816 -3.4951666631013056 -5.146416536424711 -1.10135476776638
lfemur -21.567543362172053 -3.5127183800783945 -21.221475864234314
ltibia 22.727945494372705
lfoot -2.5710585983315957 -7.208697691958312
ltoes -9.525961860458448
rfemur 1.4907907274578225 4.754304645302209 24.081869354001007
rtibia 54.10756183204805
rfoot 7.281704788144301 -3.50213451345258
rtoes 17.367911502387464
lowerback 9.328413049977307 2.491322262360978 1.9226807007028235
upperback 0.06478534009080891 3.4879684724136624 0.2538469924648672
thorax -4.961860098331247 1.6791337510188358 -1.9154848609298363
lowerneck -15.71463587432736 -3.2201970046360913 -1.9572235290095583
upperneck 20.349732366443753 -4.235103823488884 1.5794953327758903
head 9.092580398144811 -1.9695370133719705 0.27061278766508645
lclavicle -4.48409174972601e-16 -7.735206618806508e-16
lhumerus -36.10364602007152 7.013848939525224 77.72118612416799
lradius 31.12323660659638
lwrist 7.801430119209905
lhand -28.20488718534497 18.75398582221526
lfingers 7.12502
lthumb -1.5041793359010336 48.80276885692686
rclavicle -4.538064717109308e-16 -7.768223764483665e-16
rhumerus -25.046482710050512 -14.447170378461935 -79.9280621982205
rradius 28.450061277424336
rwrist 0.9269786277844339
rhand -19.071978485264623 24.165949217132116
rfingers 7.12502
rthumb 7.271254410041919 -5.825269477233289
